<?xml version="1.0"?>
<svg width="45" height="45" xmlns="http://www.w3.org/2000/svg" xmlns:svg="http://www.w3.org/2000/svg" enable-background="new 0 0 45 45" version="1.1" xml:space="preserve">
 <!-- Created with SVG-edit - https://github.com/SVG-Edit/svgedit-->
 <g class="layer">
  <title>Layer 1</title>
  <g id="svg_1">
   <g id="svg_2">
    <g id="svg_3">
     <path class="st2" d="m-78.18,17.23c-0.18,-0.35 -0.18,-0.76 0,-1.12l1.65,-3.28c0.92,-1.83 0.19,-4 -1.66,-4.96l-3.31,-1.71c-0.35,-0.18 -0.61,-0.52 -0.67,-0.9l-0.65,-3.6c-0.36,-2 -2.26,-3.34 -4.33,-3.06l-3.71,0.52c-0.4,0.05 -0.8,-0.08 -1.09,-0.34l-2.69,-2.54c-1.5,-1.42 -3.85,-1.42 -5.36,0l-2.69,2.54c-0.29,0.27 -0.68,0.4 -1.09,0.34l-3.71,-0.52c-2.06,-0.29 -3.98,1.06 -4.33,3.06l-0.65,3.6c-0.07,0.39 -0.32,0.72 -0.67,0.9l-3.31,1.71c-1.84,0.96 -2.57,3.13 -1.66,4.96l1.65,3.28c0.18,0.35 0.18,0.76 0,1.12l-1.65,3.28c-0.92,1.83 -0.19,4 1.66,4.96l3.31,1.71c0.35,0.18 0.61,0.52 0.67,0.9l0.65,3.6c0.33,1.83 1.93,3.11 3.78,3.11c0.18,0 0.36,-0.01 0.55,-0.04l3.71,-0.52c0.4,-0.05 0.8,0.08 1.09,0.34l2.69,2.54c0.75,0.71 1.71,1.06 2.67,1.06c0.96,0 1.92,-0.35 2.67,-1.06l2.69,-2.54c0.29,-0.27 0.68,-0.4 1.09,-0.34l3.71,0.52c2.06,0.28 3.98,-1.06 4.33,-3.06l0.65,-3.6c0.07,-0.39 0.32,-0.72 0.67,-0.9l3.31,-1.71c1.84,-0.96 2.57,-3.13 1.66,-4.96l-1.63,-3.28zm-24.24,-11.72c2.57,0 4.67,2.04 4.67,4.55s-2.1,4.55 -4.67,4.55s-4.67,-2.04 -4.67,-4.55s2.09,-4.55 4.67,-4.55zm-2.42,20.22c-0.25,0.25 -0.57,0.37 -0.91,0.37c-0.33,0 -0.65,-0.12 -0.91,-0.37c-0.5,-0.48 -0.5,-1.27 0,-1.75l16.83,-16.37c0.5,-0.48 1.3,-0.48 1.8,0c0.5,0.48 0.5,1.27 0,1.75l-16.82,16.37zm12.6,2.1c-2.57,0 -4.67,-2.04 -4.67,-4.55s2.1,-4.55 4.67,-4.55s4.67,2.04 4.67,4.55s-2.09,4.55 -4.67,4.55z" fill="#ededed" id="svg_4"/>
    </g>
   </g>
   <g id="svg_5">
    <g id="svg_6">
     <path class="st2" d="m-93.24,20.21c-1.17,0 -2.12,0.92 -2.12,2.06s0.95,2.06 2.12,2.06c1.17,0 2.12,-0.92 2.12,-2.06s-0.95,-2.06 -2.12,-2.06z" id="svg_7"/>
    </g>
   </g>
   <g id="svg_8">
    <g id="svg_9">
     <path class="st2" d="m-103.42,6.99c-1.17,0 -2.12,0.92 -2.12,2.06s0.95,2.06 2.12,2.06s2.12,-0.92 2.12,-2.06c0,-1.14 -0.95,-2.06 -2.12,-2.06z" id="svg_10"/>
    </g>
   </g>
  </g>
 </g>
</svg>